<svg viewBox="391 319 803 344" xmlns="http://www.w3.org/2000/svg">

<path d="M 565.91 360.12 A 100.00 100.00 0 0 1 611.95 406.16" fill="none" stroke="#C9882A" stroke-width="6" stroke-linecap="round"/>
<path d="M 611.95 493.84 A 100.00 100.00 0 0 1 565.91 539.88" fill="none" stroke="#C9882A" stroke-width="6" stroke-linecap="round"/>
<path d="M 478.23 539.88 A 100.00 100.00 0 0 1 432.19 493.84" fill="none" stroke="#C9882A" stroke-width="6" stroke-linecap="round"/>
<path d="M 432.19 406.16 A 100.00 100.00 0 0 1 478.23 360.12" fill="none" stroke="#C9882A" stroke-width="6" stroke-linecap="round"/>
<circle cx="522.07" cy="350.00" r="15" fill="#F5F0E8"/>
<circle cx="622.07" cy="450.00" r="15" fill="#F5F0E8"/>
<circle cx="522.07" cy="550.00" r="15" fill="#F5F0E8"/>
<circle cx="422.07" cy="450.00" r="15" fill="#F5F0E8"/>
<path d="M60 13 411 600Q414 605 413.5 606.5Q413 608 406 608Q344 608 296.5 605.5Q249 603 213.5 596.0Q178 589 152.0 574.5Q126 560 106.0 536.5Q86 513 69 478Q68 476 62.0 477.0Q56 478 57 481L97 655Q98 657 104.0 656.0Q110 655 109 653Q106 635 117.0 630.0Q128 625 166 625Q226 625 313.0 625.0Q400 625 531 625Q536 625 538.5 620.0Q541 615 538 612L192 27Q188 22 189.0 20.5Q190 19 196 19Q261 19 314.0 19.0Q367 19 398 19Q435 19 468.5 37.5Q502 56 526.0 86.5Q550 117 556 153Q557 156 562.0 156.0Q567 156 567 153L553 8Q553 5 551.0 1.5Q549 -2 544 -2Q470 -1 387.5 -0.5Q305 0 222.5 0.0Q140 0 65 0Q61 0 59.0 4.5Q57 9 60 13Z" fill="#F5F0E8" transform="translate(668.07,535.80) scale(0.260000,-0.260000)"/>
<path d="M319 -6Q315 -8 309 -8Q291 -8 273.0 16.0Q255 40 255 85V255Q255 318 245.0 347.5Q235 377 209 377Q184 377 171.5 361.5Q159 346 154.5 327.0Q150 308 149 295Q146 264 131.0 251.5Q116 239 91 239Q65 239 54.0 250.0Q43 261 43 277Q43 301 64.5 322.5Q86 344 119.0 360.5Q152 377 187.5 386.5Q223 396 250 396Q291 396 320.0 370.0Q349 344 349 285V108Q349 79 359.5 63.0Q370 47 389 47Q403 47 418 54Q422 56 424.5 50.5Q427 45 422 43ZM127 -7Q83 -7 61.5 12.5Q40 32 40 65Q40 98 58.0 115.5Q76 133 105.0 143.5Q134 154 165 165L265 202L269 187L212 161Q204 158 189.0 151.5Q174 145 162.0 132.5Q150 120 150 97Q150 71 167.0 58.5Q184 46 201 46Q209 46 216.5 48.0Q224 50 234 57L284 91L285 75L215 25Q193 8 173.0 0.5Q153 -7 127 -7Z" fill="#F5F0E8" transform="translate(825.37,535.80) scale(0.260000,-0.260000)"/>
<path d="M184 -12Q160 -12 135.5 -4.0Q111 4 94.5 24.0Q78 44 78 80V302Q78 323 73.0 335.0Q68 347 57.0 352.0Q46 357 27 357Q23 357 23.0 366.0Q23 375 27 375Q78 377 110.0 397.5Q142 418 158 458Q160 462 166.5 462.0Q173 462 173 458V113Q173 73 193.5 56.0Q214 39 244 39Q267 39 287.5 48.5Q308 58 322 69Q325 72 329.5 67.5Q334 63 330 60Q293 23 258.5 5.5Q224 -12 184 -12ZM299 335Q258 344 219.5 347.5Q181 351 138 351V377Q179 377 218.5 380.0Q258 383 303 387Q305 387 307.5 379.5Q310 372 310 363Q310 353 306.5 343.5Q303 334 299 335Z" fill="#F5F0E8" transform="translate(934.83,535.80) scale(0.260000,-0.260000)"/>
<path d="M184 -12Q160 -12 135.5 -4.0Q111 4 94.5 24.0Q78 44 78 80V302Q78 323 73.0 335.0Q68 347 57.0 352.0Q46 357 27 357Q23 357 23.0 366.0Q23 375 27 375Q78 377 110.0 397.5Q142 418 158 458Q160 462 166.5 462.0Q173 462 173 458V113Q173 73 193.5 56.0Q214 39 244 39Q267 39 287.5 48.5Q308 58 322 69Q325 72 329.5 67.5Q334 63 330 60Q293 23 258.5 5.5Q224 -12 184 -12ZM299 335Q258 344 219.5 347.5Q181 351 138 351V377Q179 377 218.5 380.0Q258 383 303 387Q305 387 307.5 379.5Q310 372 310 363Q310 353 306.5 343.5Q303 334 299 335Z" fill="#F5F0E8" transform="translate(1022.19,535.80) scale(0.260000,-0.260000)"/>
<path d="M39 0Q36 0 36.0 6.0Q36 12 39 12Q70 12 81.0 26.5Q92 41 92 81V260Q92 293 85.5 308.5Q79 324 62 324Q55 324 45.5 321.0Q36 318 25 313Q21 312 18.5 318.0Q16 324 19 325L170 395Q172 396 173 396Q178 396 183.0 391.0Q188 386 188 382Q188 370 187.0 342.0Q186 314 186 262V81Q186 41 197.5 26.5Q209 12 240 12Q243 12 243.0 6.0Q243 0 240 0Q220 0 194.0 1.0Q168 2 139 2Q111 2 85.0 1.0Q59 0 39 0ZM135 495Q107 495 90.5 511.0Q74 527 74 556Q74 582 90.5 597.5Q107 613 135 613Q163 613 178.0 597.5Q193 582 193 556Q193 495 135 495Z" fill="#F5F0E8" transform="translate(1109.55,535.80) scale(0.260000,-0.260000)"/>
<line x1="963.79" y1="595.8" x2="1177.93" y2="595.8" stroke="#C9882A" stroke-width="4"/>
</svg>
