<svg viewBox="160 160 880 880" xmlns="http://www.w3.org/2000/svg">
  
  <defs>
    <linearGradient id="fundo-escuro" x1="0" y1="0" x2="1" y2="1">
      <stop offset="0" stop-color="#000104"/><stop offset=".38" stop-color="#020713"/>
      <stop offset=".67" stop-color="#07142B"/><stop offset="1" stop-color="#000103"/>
    </linearGradient>
    <radialGradient id="halo"><stop offset="0" stop-color="#12336B" stop-opacity=".34"/>
      <stop offset=".46" stop-color="#071D43" stop-opacity=".16"/>
      <stop offset="1" stop-color="#020817" stop-opacity="0"/></radialGradient>
    <radialGradient id="halo-ambar"><stop offset="0" stop-color="#C9882A" stop-opacity=".11"/>
      <stop offset=".38" stop-color="#7A4915" stop-opacity=".04"/>
      <stop offset="1" stop-color="#C9882A" stop-opacity="0"/></radialGradient>
    <linearGradient id="fundo-claro" x1="0" y1="0" x2="0" y2="1">
      <stop offset="0" stop-color="#FFFFFF"/><stop offset=".65" stop-color="#F5F0E8"/>
      <stop offset="1" stop-color="#E8E0D4"/>
    </linearGradient>
    <linearGradient id="marfim-metal" x1="0" y1="0" x2=".82" y2="1">
      <stop offset="0" stop-color="#FFFFFF"/><stop offset=".16" stop-color="#72818B"/>
      <stop offset=".30" stop-color="#FFFFFF"/><stop offset=".48" stop-color="#F5F0E8"/>
      <stop offset=".64" stop-color="#647680"/><stop offset=".80" stop-color="#FFFFFF"/>
      <stop offset="1" stop-color="#AAB6BE"/>
    </linearGradient>
    <linearGradient id="azul-metal" x1="0" y1="0" x2=".82" y2="1">
      <stop offset="0" stop-color="#020609"/><stop offset=".18" stop-color="#315A73"/>
      <stop offset=".34" stop-color="#07141E"/><stop offset=".55" stop-color="#0D1F2D"/>
      <stop offset=".72" stop-color="#4C7189"/><stop offset=".86" stop-color="#0D1F2D"/>
      <stop offset="1" stop-color="#020609"/>
    </linearGradient>
    <linearGradient id="ambar-metal" x1="0" y1="0" x2="1" y2="1">
      <stop offset="0" stop-color="#5B320D"/><stop offset=".20" stop-color="#C9882A"/>
      <stop offset=".43" stop-color="#FFF0C7"/><stop offset=".55" stop-color="#F0B85E"/>
      <stop offset=".76" stop-color="#C9882A"/><stop offset="1" stop-color="#4D2808"/>
    </linearGradient>
    <radialGradient id="no-marfim" cx="32%" cy="25%" r="74%">
      <stop offset="0" stop-color="#FFFFFF"/><stop offset=".38" stop-color="#F5F0E8"/>
      <stop offset=".72" stop-color="#AAB6BE"/><stop offset="1" stop-color="#5E6D76"/>
    </radialGradient>
    <radialGradient id="no-azul" cx="30%" cy="22%" r="78%">
      <stop offset="0" stop-color="#4C7189"/><stop offset=".38" stop-color="#1A3A52"/>
      <stop offset=".76" stop-color="#0D1F2D"/><stop offset="1" stop-color="#050B11"/>
    </radialGradient>
    <filter id="fumaca" x="-30%" y="-30%" width="160%" height="160%">
      <feGaussianBlur stdDeviation="18"/>
    </filter>
    <filter id="elevacao" x="-30%" y="-30%" width="160%" height="180%">
      <feDropShadow dx="0" dy="18" stdDeviation="18" flood-color="#000000" flood-opacity=".78"/>
      <feDropShadow dx="0" dy="-3" stdDeviation="4" flood-color="#FFFFFF" flood-opacity=".28"/>
    </filter>
    <filter id="elevacao-suave" x="-20%" y="-20%" width="140%" height="150%">
      <feDropShadow dx="0" dy="6" stdDeviation="5" flood-color="#000000" flood-opacity=".32"/>
      <feDropShadow dx="0" dy="-1" stdDeviation="1.5" flood-color="#FFFFFF" flood-opacity=".14"/>
    </filter>
    <filter id="glow-ambar" x="-80%" y="-80%" width="260%" height="260%">
      <feGaussianBlur stdDeviation="13" result="b"/><feMerge><feMergeNode in="b"/>
      <feMergeNode in="SourceGraphic"/></feMerge>
    </filter>
    <filter id="glow-ambar-suave" x="-40%" y="-40%" width="180%" height="180%">
      <feGaussianBlur stdDeviation="4.5" result="b"/><feMerge><feMergeNode in="b"/>
      <feMergeNode in="SourceGraphic"/></feMerge>
    </filter>
    <filter id="brilho-frio" x="-45%" y="-45%" width="190%" height="190%">
      <feGaussianBlur stdDeviation="4" result="b"/><feMerge><feMergeNode in="b"/>
      <feMergeNode in="SourceGraphic"/></feMerge>
    </filter>
    <linearGradient id="borda" x1="0" y1="0" x2="1" y2="1">
      <stop offset="0" stop-color="#FFFFFF" stop-opacity=".62"/>
      <stop offset=".45" stop-color="#C9882A" stop-opacity=".35"/>
      <stop offset="1" stop-color="#1A3A52" stop-opacity=".9"/>
    </linearGradient>
  </defs>
  <g opacity=".24" transform="translate(0 5)"><path d="M 749.05 294.41 A 340.00 340.00 0 0 1 905.59 450.95" fill="none" stroke="#6F4317" stroke-width="5" stroke-linecap="round"/>
<path d="M 905.59 749.05 A 340.00 340.00 0 0 1 749.05 905.59" fill="none" stroke="#6F4317" stroke-width="5" stroke-linecap="round"/>
<path d="M 450.95 905.59 A 340.00 340.00 0 0 1 294.41 749.05" fill="none" stroke="#6F4317" stroke-width="5" stroke-linecap="round"/>
<path d="M 294.41 450.95 A 340.00 340.00 0 0 1 450.95 294.41" fill="none" stroke="#6F4317" stroke-width="5" stroke-linecap="round"/>
<circle cx="600.00" cy="260.00" r="46" fill="#050A0F"/>
<circle cx="940.00" cy="600.00" r="46" fill="#050A0F"/>
<circle cx="600.00" cy="940.00" r="46" fill="#050A0F"/>
<circle cx="260.00" cy="600.00" r="46" fill="#050A0F"/></g>
  <g id="marca-v2" filter="url(#elevacao-suave)"><path d="M 749.05 294.41 A 340.00 340.00 0 0 1 905.59 450.95" fill="none" stroke="url(#ambar-metal)" stroke-width="5" stroke-linecap="round"/>
<path d="M 905.59 749.05 A 340.00 340.00 0 0 1 749.05 905.59" fill="none" stroke="url(#ambar-metal)" stroke-width="5" stroke-linecap="round"/>
<path d="M 450.95 905.59 A 340.00 340.00 0 0 1 294.41 749.05" fill="none" stroke="url(#ambar-metal)" stroke-width="5" stroke-linecap="round"/>
<path d="M 294.41 450.95 A 340.00 340.00 0 0 1 450.95 294.41" fill="none" stroke="url(#ambar-metal)" stroke-width="5" stroke-linecap="round"/>
<circle cx="600.00" cy="260.00" r="46" fill="url(#no-marfim)" stroke="#FFFFFF" stroke-width="2"/>
<circle cx="940.00" cy="600.00" r="46" fill="url(#no-marfim)" stroke="#FFFFFF" stroke-width="2"/>
<circle cx="600.00" cy="940.00" r="46" fill="url(#no-marfim)" stroke="#FFFFFF" stroke-width="2"/>
<circle cx="260.00" cy="600.00" r="46" fill="url(#no-marfim)" stroke="#FFFFFF" stroke-width="2"/></g>
  
  <g id="energia-v2" filter="url(#glow-ambar-suave)" opacity=".56"><path d="M 749.05 294.41 A 340.00 340.00 0 0 1 905.59 450.95" fill="none" stroke="url(#ambar-metal)" stroke-width="5" stroke-linecap="round"/>
<path d="M 905.59 749.05 A 340.00 340.00 0 0 1 749.05 905.59" fill="none" stroke="url(#ambar-metal)" stroke-width="5" stroke-linecap="round"/>
<path d="M 450.95 905.59 A 340.00 340.00 0 0 1 294.41 749.05" fill="none" stroke="url(#ambar-metal)" stroke-width="5" stroke-linecap="round"/>
<path d="M 294.41 450.95 A 340.00 340.00 0 0 1 450.95 294.41" fill="none" stroke="url(#ambar-metal)" stroke-width="5" stroke-linecap="round"/></g>
  </svg>